<?xml version="1.0" standalone="no"?>
<!DOCTYPE svg PUBLIC "-//W3C//DTD SVG 20010904//EN"
 "http://www.w3.org/TR/2001/REC-SVG-20010904/DTD/svg10.dtd">
<svg version="1.0" xmlns="http://www.w3.org/2000/svg"
 width="1633.139662pt" height="1480.790124pt" viewBox="0 0 1633.139662 1480.790124"
 preserveAspectRatio="xMidYMid meet">
<metadata>
Created by Potrace Professional 1.1m
</metadata>
<g transform="translate(-22.290799,1480.937882) rotate(-360.00) scale(0.095238,-0.095238)"
fill="#000000" stroke="none">
<path d="M8782 15540 c-13 -5 -26 -18 -29 -28 -12 -37 -228 -1436 -411 -2655
-647 -4321 -1081 -7788 -1228 -9817 -52 -716 -70 -1375 -48 -1701 19 -281 15
-268 85 -285 167 -42 306 -143 620 -450 339 -332 453 -424 629 -509 135 -65
218 -85 365 -92 187 -8 316 20 488 110 145 76 258 169 542 446 349 342 475
435 659 491 l75 22 6 55 c97 808 -79 2997 -514 6396 -266 2081 -655 4790
-1059 7379 -49 316 -89 580 -89 586 0 13 -49 63 -60 62 -5 -1 -19 -5 -31 -10z"/>
<path d="M247 12926 c-19 -21 -18 -25 9 -135 38 -157 66 -351 81 -580 16 -255
6 -975 -22 -1559 -28 -571 -38 -1289 -22 -1559 51 -868 202 -1278 631 -1712
318 -321 595 -513 1502 -1042 660 -385 891 -535 1162 -751 214 -172 407 -376
511 -540 102 -161 193 -379 252 -608 151 -578 179 -1232 112 -2615 -31 -635
-37 -958 -22 -1173 7 -101 17 -192 22 -202 6 -11 47 -31 97 -47 79 -27 100
-29 254 -30 144 0 182 3 263 25 110 29 152 48 152 70 0 9 12 40 27 69 98 194
470 387 965 502 l126 29 8 67 c4 37 15 188 24 335 43 702 182 2218 324 3544
34 322 35 340 21 436 -66 451 -199 852 -366 1109 -106 162 -377 423 -661 634
-491 366 -1020 644 -2174 1142 -940 406 -1221 553 -1471 765 -167 143 -245
322 -398 912 -158 611 -201 772 -264 982 -255 841 -563 1430 -969 1850 -106
110 -136 124 -174 82z"/>
<path d="M17182 12828 c-322 -332 -598 -811 -820 -1425 -115 -316 -190 -576
-396 -1373 -158 -612 -234 -786 -408 -936 -91 -78 -283 -203 -450 -292 -225
-121 -410 -205 -1258 -573 -803 -348 -1269 -589 -1712 -884 -394 -263 -724
-555 -870 -770 -166 -244 -307 -665 -374 -1113 l-16 -109 47 -448 c163 -1544
299 -3071 327 -3650 8 -159 15 -195 42 -194 34 0 306 -74 429 -116 151 -52
338 -140 435 -204 120 -80 231 -214 232 -281 0 -33 185 -81 349 -89 139 -7
251 7 349 43 77 29 74 19 89 300 12 215 5 534 -26 1155 -42 845 -44 1366 -10
1793 51 626 172 1068 385 1399 142 221 438 499 794 743 201 138 388 253 863
530 562 329 786 468 1002 621 448 321 725 615 891 946 143 287 221 666 249
1222 18 370 12 734 -26 1587 -53 1154 -36 1714 63 2088 24 91 25 101 10 124
-11 16 -26 25 -46 25 -24 0 -51 -23 -144 -119z"/>
</g>
</svg>
