<?xml version="1.0" standalone="no"?>
<!DOCTYPE svg PUBLIC "-//W3C//DTD SVG 20010904//EN"
 "http://www.w3.org/TR/2001/REC-SVG-20010904/DTD/svg10.dtd">
<svg version="1.0" xmlns="http://www.w3.org/2000/svg"
 width="1661.769935pt" height="1661.949719pt" viewBox="0 0 1661.769935 1661.949719"
 preserveAspectRatio="xMidYMid meet">
<metadata>
Created by Potrace Professional 1.1m
</metadata>
<g transform="translate(-3.709225,1663.497086) rotate(-360.00) scale(0.095238,-0.095238)"
fill="#000000" stroke="none">
<path d="M9932 17462 c-26 -5 -71 -19 -100 -31 -114 -49 -98 -21 -601 -1099
l-461 -986 -161 -7 c-401 -18 -684 -47 -1000 -104 -97 -17 -181 -29 -185 -26
-5 3 -294 387 -642 854 -347 466 -651 867 -675 890 -89 87 -244 113 -384 64
-82 -28 -2137 -1137 -2207 -1190 -99 -76 -166 -199 -167 -305 0 -40 76 -260
375 -1081 l374 -1032 -114 -122 c-248 -265 -538 -626 -682 -847 -49 -76 -54
-81 -84 -76 -17 3 -504 74 -1081 158 -686 100 -1065 150 -1092 146 -105 -15
-236 -120 -288 -230 -12 -27 -179 -572 -371 -1211 -333 -1114 -347 -1166 -347
-1247 1 -134 51 -247 137 -305 18 -12 471 -227 1007 -477 l976 -456 12 -268
c18 -365 46 -604 125 -1046 6 -32 -2 -38 -875 -689 -938 -701 -923 -688 -949
-798 -15 -65 -8 -185 15 -252 18 -50 1103 -2067 1164 -2164 44 -70 138 -150
207 -177 40 -16 80 -23 127 -23 62 1 152 32 1091 375 l1023 373 116 -113 c248
-239 602 -524 870 -700 53 -35 60 -43 55 -67 -3 -15 -74 -502 -158 -1082 -106
-737 -151 -1068 -146 -1098 18 -106 116 -229 225 -280 32 -15 575 -182 1208
-372 l1149 -345 105 0 c85 0 117 5 165 24 125 50 101 7 613 1105 l463 992 220
7 c357 11 804 62 1080 124 23 5 42 8 43 7 1 -1 291 -389 644 -863 353 -473
661 -878 684 -899 24 -22 67 -48 97 -58 72 -25 194 -24 270 1 68 23 2135 1136
2207 1189 105 76 171 197 170 308 0 63 -29 147 -374 1092 l-374 1024 77 79
c225 232 479 540 648 784 54 78 105 151 114 163 16 21 24 20 1082 -133 709
-103 1084 -154 1123 -151 114 8 231 94 291 215 17 34 185 574 376 1211 l345
1150 1 110 c0 99 -3 117 -30 173 -56 120 -10 96 -1099 604 l-997 465 0 155 c0
166 -22 467 -48 669 -17 132 -78 497 -85 508 -2 3 393 303 879 665 596 445
890 671 908 697 61 94 71 248 22 369 -13 32 -278 530 -590 1107 -625 1158
-614 1139 -748 1205 -48 24 -88 35 -133 38 -63 4 -93 -6 -1083 -366 -560 -204
-1026 -372 -1036 -375 -13 -3 -57 32 -143 115 -228 220 -483 428 -760 620 -84
59 -154 113 -154 119 -1 6 68 483 151 1060 84 577 153 1075 153 1108 0 113
-94 245 -221 309 -36 19 -2042 626 -2320 702 -77 22 -163 28 -222 18z m-613
-3218 c313 -35 526 -73 803 -142 1166 -293 2205 -962 2957 -1902 692 -865
1099 -1884 1203 -3007 17 -189 17 -724 0 -914 -106 -1160 -537 -2207 -1273
-3092 -235 -283 -604 -633 -908 -861 -1559 -1170 -3575 -1443 -5385 -729 -197
78 -595 275 -781 386 -402 241 -747 510 -1074 836 -787 787 -1319 1791 -1531
2888 -65 337 -96 668 -96 1034 0 861 187 1666 567 2436 543 1103 1401 1963
2510 2514 650 323 1319 507 2063 568 175 14 771 5 945 -15z"/>
<path d="M8453 13402 c-21 -2 -92 -9 -158 -15 -178 -17 -460 -66 -652 -115
-1012 -254 -1905 -830 -2552 -1648 -563 -712 -907 -1592 -985 -2526 -14 -162
-14 -551 0 -714 128 -1522 955 -2866 2242 -3644 1286 -777 2868 -888 4244
-300 552 236 1008 541 1434 957 793 773 1256 1729 1389 2861 26 221 26 735 0
956 -68 585 -218 1098 -464 1594 -563 1135 -1543 1984 -2740 2373 -494 160
-938 229 -1458 226 -145 -1 -280 -3 -300 -5z m698 -1563 c711 -94 1341 -405
1834 -905 143 -144 219 -234 321 -378 286 -402 469 -849 551 -1348 31 -194 34
-714 5 -902 -38 -244 -104 -495 -182 -697 -103 -268 -299 -606 -483 -836 -99
-124 -345 -369 -473 -470 -437 -347 -939 -567 -1489 -655 -177 -28 -566 -39
-758 -21 -588 56 -1143 273 -1623 638 -157 119 -455 421 -576 583 -564 758
-763 1672 -560 2578 102 453 320 906 614 1274 109 136 329 357 462 462 520
416 1103 644 1779 697 107 8 455 -4 578 -20z"/>
</g>
</svg>
