<?xml version="1.0" standalone="no"?>
<!DOCTYPE svg PUBLIC "-//W3C//DTD SVG 20010904//EN"
 "http://www.w3.org/TR/2001/REC-SVG-20010904/DTD/svg10.dtd">
<svg version="1.0" xmlns="http://www.w3.org/2000/svg"
 width="1665.836799pt" height="1664.696326pt" viewBox="0 0 1665.836799 1664.696326"
 preserveAspectRatio="xMidYMid meet">
<metadata>
Created by Potrace Professional 1.1m
</metadata>
<g transform="translate(-1.897360,1664.824176) rotate(-360.00) scale(0.095238,-0.095238)"
fill="#000000" stroke="none">
<path d="M11060 17472 c143 -709 193 -1274 166 -1887 -50 -1160 -320 -2209
-826 -3211 -150 -297 -265 -495 -440 -761 -142 -213 -408 -575 -426 -577 -3 0
-24 53 -46 118 -349 1007 -895 1934 -1650 2801 -158 180 -671 693 -855 854
-674 589 -1426 1090 -2221 1482 -251 123 -531 250 -537 243 -2 -2 44 -36 104
-75 1780 -1183 3046 -3234 3336 -5402 10 -78 17 -144 15 -146 -2 -2 -90 34
-196 81 -1580 696 -3295 947 -4990 730 -731 -93 -1485 -287 -2156 -554 -195
-78 -352 -147 -312 -138 91 20 437 82 557 99 1786 255 3676 -156 5208 -1133
214 -137 665 -465 674 -491 2 -4 -50 -26 -115 -48 -450 -153 -1012 -411 -1441
-663 -1405 -823 -2603 -2076 -3475 -3633 -136 -243 -478 -950 -478 -988 0 -4
32 43 73 105 406 615 952 1208 1569 1702 1133 906 2545 1502 3951 1669 l55 6
-48 -103 c-659 -1416 -955 -3120 -817 -4694 79 -905 284 -1774 608 -2574 51
-125 97 -239 103 -255 25 -62 22 -23 -10 142 -294 1485 -117 3091 498 4517
247 573 592 1157 970 1640 80 102 104 124 104 97 0 -23 157 -443 236 -629 100
-236 324 -684 451 -898 410 -697 871 -1284 1471 -1874 735 -722 1568 -1318
2508 -1795 238 -120 678 -322 657 -301 -3 2 -49 34 -103 69 -1688 1108 -2939
3027 -3309 5078 -25 134 -74 466 -74 494 0 2 27 -9 60 -24 1042 -473 2049
-738 3190 -839 257 -23 980 -32 1263 -16 940 54 1820 237 2680 558 189 70 475
189 469 195 -2 2 -46 -5 -98 -16 -702 -153 -1524 -194 -2293 -116 -1265 129
-2470 559 -3507 1252 -208 139 -546 392 -546 408 0 4 46 23 102 41 143 47 391
143 565 218 1548 665 2944 1869 3959 3415 227 346 402 648 587 1013 122 241
317 667 296 645 -3 -2 -34 -49 -69 -103 -380 -578 -898 -1150 -1476 -1629
-158 -132 -466 -358 -658 -485 -1016 -672 -2144 -1097 -3323 -1252 -63 -8
-115 -14 -116 -13 -1 1 31 74 71 163 427 941 695 1985 794 3094 23 266 27
1175 5 1433 -86 1009 -293 1894 -646 2752 -69 169 -105 245 -98 209z m-2401
-5995 c198 -245 400 -591 511 -872 85 -219 143 -447 170 -680 17 -147 20 -404
5 -527 -5 -44 -7 -81 -5 -83 2 -2 29 18 59 45 30 27 92 74 139 105 47 30 133
86 190 124 425 278 731 744 839 1279 14 72 28 145 31 162 11 84 5 -90 -8 -225
-77 -793 -362 -1442 -842 -1919 -82 -82 -146 -152 -141 -155 17 -10 295 -57
415 -69 156 -16 526 -7 670 16 392 62 740 191 1047 385 l37 24 -21 -25 c-12
-13 -73 -69 -137 -124 -486 -418 -1017 -676 -1575 -764 -132 -21 -474 -31
-598 -18 -52 5 -96 9 -99 7 -2 -2 20 -31 49 -64 29 -34 107 -144 173 -245 138
-209 264 -357 408 -478 287 -240 597 -381 1007 -457 l110 -20 -115 5 c-703 35
-1377 276 -1863 667 -56 45 -157 139 -225 209 -72 76 -125 122 -127 114 -13
-38 -28 -110 -49 -229 -28 -167 -39 -562 -21 -738 43 -395 168 -776 367 -1110
l54 -89 -75 78 c-455 479 -769 1120 -843 1723 -17 135 -21 459 -7 569 4 33 6
61 4 61 -2 0 -38 -28 -79 -63 -42 -34 -145 -105 -228 -158 -180 -114 -279
-194 -412 -335 -276 -291 -440 -627 -523 -1072 -17 -90 -19 -94 -20 -47 -1 29
4 104 10 168 79 844 411 1562 937 2030 39 34 56 56 48 59 -89 30 -332 66 -520
78 -355 22 -731 -29 -1073 -148 -135 -46 -399 -171 -505 -239 l-69 -43 82 79
c177 170 442 363 685 497 319 177 679 298 1027 343 129 17 465 21 577 7 33 -4
60 -6 60 -4 0 2 -23 31 -51 64 -29 32 -101 135 -162 228 -175 268 -310 418
-524 577 -249 187 -521 300 -890 373 l-100 20 121 -5 c820 -39 1621 -386 2097
-910 39 -43 75 -79 81 -81 6 -1 21 49 34 111 136 661 24 1373 -304 1936 l-71
120 75 -78 c41 -43 114 -128 163 -189z"/>
</g>
</svg>
