<?xml version="1.0" standalone="no"?>
<!DOCTYPE svg PUBLIC "-//W3C//DTD SVG 20010904//EN"
 "http://www.w3.org/TR/2001/REC-SVG-20010904/DTD/svg10.dtd">
<svg version="1.0" xmlns="http://www.w3.org/2000/svg"
 width="1537.755248pt" height="1645.599549pt" viewBox="0 0 1537.755248 1645.599549"
 preserveAspectRatio="xMidYMid meet">
<metadata>
Created by Potrace Professional 1.1m
</metadata>
<g transform="translate(-20.093888,1664.000000) rotate(-360.00) scale(0.095238,-0.095238)"
fill="#000000" stroke="none">
<path d="M7367 17448 c-31 -28 -5768 -8994 -5784 -9039 -6 -18 -8 -54 -5 -81
5 -34 153 -362 497 -1099 l491 -1050 0 -68 c-1 -62 -23 -127 -229 -693 -312
-852 -312 -853 -298 -844 206 127 380 212 534 261 l57 18 1365 3449 c750 1897
1368 3451 1373 3454 4 3 8 -2 8 -12 0 -9 -182 -566 -405 -1237 -222 -671 -437
-1318 -477 -1438 -53 -161 -67 -214 -54 -204 11 7 511 428 1112 935 948 800
1095 927 1100 956 24 141 854 6641 850 6655 -9 27 -56 61 -85 61 -13 0 -36
-11 -50 -24z"/>
<path d="M8657 12137 c-2235 -1883 -4079 -3439 -4099 -3457 -42 -40 -74 -105
-74 -152 0 -19 68 -536 152 -1150 109 -789 152 -1132 148 -1175 -2 -35 -14
-77 -27 -98 -15 -27 -1052 -1399 -1088 -1441 -2 -3 -57 7 -122 21 -105 21
-146 24 -355 24 -203 -1 -251 -4 -344 -24 -659 -143 -1165 -589 -1372 -1209
-70 -212 -84 -304 -84 -562 -1 -262 15 -367 84 -579 93 -284 288 -585 497
-769 l68 -59 -7 37 c-3 20 -14 81 -25 136 -14 76 -19 153 -19 326 0 246 17
370 75 562 20 67 27 109 24 146 -3 29 -4 126 -4 216 0 141 4 175 28 262 15 55
42 131 59 170 32 72 129 229 152 248 17 14 95 -12 212 -72 l95 -48 63 56 c93
85 266 199 418 276 l136 68 22 63 22 63 47 -2 c26 -2 79 -10 117 -20 66 -15
77 -15 199 6 341 59 684 33 1010 -77 l134 -45 51 64 c27 35 262 343 520 683
259 341 483 631 498 644 45 40 106 63 206 76 52 7 99 16 103 21 9 7 158 1396
151 1403 -3 3 -417 -571 -920 -1274 -504 -704 -920 -1283 -925 -1288 -4 -5
-53 28 -107 74 -54 46 -137 109 -185 140 -47 30 -85 59 -85 62 0 7 4973 6185
5003 6216 81 82 -123 -209 -1054 -1508 -595 -830 -1080 -1511 -1079 -1513 2
-1 674 332 1493 740 l1490 743 1441 3149 c793 1731 1442 3160 1442 3174 0 37
-45 77 -87 77 -31 0 -465 -363 -4098 -3424z"/>
<path d="M11456 9664 c-2631 -1309 -4796 -2391 -4812 -2406 -16 -15 -36 -46
-44 -70 -10 -27 -60 -464 -132 -1171 -64 -621 -121 -1146 -126 -1166 -6 -20
-22 -54 -37 -76 -15 -22 -329 -285 -726 -607 l-699 -569 -101 48 c-642 302
-1392 201 -1943 -261 -503 -422 -737 -1107 -600 -1757 116 -547 485 -1016 990
-1256 428 -204 898 -235 1345 -90 889 290 1412 1207 1208 2119 -14 66 -25 123
-23 128 6 16 1378 1125 1416 1145 20 10 55 22 78 25 27 5 449 -35 1157 -109
612 -63 1138 -116 1168 -116 67 1 112 19 154 65 18 19 1516 1913 3328 4209
2421 3066 3297 4182 3300 4205 6 49 -31 90 -80 89 -30 -1 -1159 -558 -4821
-2379z m168 -1483 c0 -5 -1365 -1182 -3032 -2616 l-3032 -2606 -18 24 c-100
137 -142 190 -206 261 l-75 82 3173 2432 c1746 1337 3177 2432 3182 2432 4 0
8 -4 8 -9z m-7387 -5076 c75 -15 75 -16 77 -198 4 -352 -157 -681 -436 -893
-60 -46 -132 -92 -142 -92 -3 0 8 46 25 102 96 321 99 686 10 1002 -19 69 -19
71 0 77 83 27 344 28 466 2z m-1094 -489 c9 -99 -6 -250 -35 -364 -23 -92
-129 -315 -177 -372 l-31 -36 -8 71 c-17 168 22 394 99 557 42 89 126 227 139
227 3 0 10 -38 13 -83z m1898 -168 c212 -506 41 -1076 -414 -1377 -108 -72
-213 -118 -353 -155 -86 -22 -123 -26 -258 -27 -246 0 -440 56 -624 181 l-48
32 41 0 c22 0 98 12 169 26 682 139 1222 649 1397 1322 34 131 34 131 90 -2z"/>
<path d="M3700 6678 l-577 -1738 121 -7 c67 -4 168 -13 224 -20 149 -18 142
-26 284 365 55 151 107 288 116 306 31 59 105 110 268 185 l159 73 142 188
c135 179 142 190 136 226 -3 21 -70 509 -148 1084 -78 574 -143 1051 -144
1060 -2 9 -263 -766 -581 -1722z"/>
<path d="M1645 4315 c-973 -210 -1596 -1164 -1397 -2141 9 -44 34 -135 57
-203 123 -369 349 -677 666 -906 113 -81 351 -201 486 -245 202 -66 470 -103
659 -90 104 7 265 31 275 40 2 3 -24 47 -58 99 -35 52 -87 137 -115 190 -52
96 -53 97 -166 175 -63 43 -148 108 -190 145 -64 58 -84 69 -147 85 -211 53
-440 209 -581 397 -320 424 -306 994 33 1406 32 38 46 70 66 147 74 283 242
605 422 807 33 38 70 79 81 92 25 28 28 28 -91 2z"/>
</g>
</svg>
