<?xml version="1.0" standalone="no"?>
<!DOCTYPE svg PUBLIC "-//W3C//DTD SVG 20010904//EN"
 "http://www.w3.org/TR/2001/REC-SVG-20010904/DTD/svg10.dtd">
<svg version="1.0" xmlns="http://www.w3.org/2000/svg"
 width="1493.779886pt" height="1665.746004pt" viewBox="0 0 1493.779886 1665.746004"
 preserveAspectRatio="xMidYMid meet">
<metadata>
Created by Potrace Professional 1.1m
</metadata>
<g transform="translate(-0.610446,1665.829988) rotate(-360.00) scale(0.095238,-0.095238)"
fill="#000000" stroke="none">
<path d="M5824 14724 c-1674 -2125 -2187 -2783 -2178 -2792 45 -41 4034 -2754
4040 -2747 11 12 2352 5728 2352 5743 0 9 -1965 2516 -2010 2563 -11 11 -431
-516 -2204 -2767z"/>
<path d="M10435 12056 c-679 -1407 -1237 -2564 -1239 -2571 -2 -7 939 -745
2092 -1640 1547 -1202 2098 -1624 2107 -1616 37 30 2297 2574 2296 2584 -1 12
-3984 5765 -4008 5789 -9 10 -296 -576 -1248 -2546z"/>
<path d="M1154 9989 c-632 -708 -1148 -1293 -1148 -1299 2 -12 3985 -5765
4008 -5789 10 -10 293 569 1250 2549 681 1409 1235 2568 1233 2575 -6 16
-4171 3252 -4185 3252 -6 0 -527 -579 -1158 -1288z"/>
<path d="M6732 5449 l-1179 -2877 98 -125 c570 -728 1926 -2446 1930 -2446 5
0 4356 5523 4371 5549 5 9 -569 407 -2006 1388 -1107 756 -2018 1377 -2024
1381 -7 4 -457 -1080 -1190 -2870z"/>
</g>
</svg>
