<?xml version="1.0" standalone="no"?>
<!DOCTYPE svg PUBLIC "-//W3C//DTD SVG 20010904//EN"
 "http://www.w3.org/TR/2001/REC-SVG-20010904/DTD/svg10.dtd">
<svg version="1.0" xmlns="http://www.w3.org/2000/svg"
 width="1626.206759pt" height="1428.584086pt" viewBox="0 0 1626.206759 1428.584086"
 preserveAspectRatio="xMidYMid meet">
<metadata>
Created by Potrace Professional 1.1m
</metadata>
<g transform="translate(-20.508735,1428.584086) rotate(-360.00) scale(0.095238,-0.095238)"
fill="#000000" stroke="none">
<path d="M8159 14993 c-213 -23 -530 -100 -728 -176 l-82 -32 -112 25 c-228
51 -339 63 -606 63 -194 0 -281 -5 -378 -20 -168 -25 -379 -78 -546 -135 -78
-27 -193 -57 -268 -70 -538 -92 -995 -258 -1302 -474 -149 -105 -337 -305
-403 -431 -18 -33 -35 -44 -126 -83 -165 -68 -469 -227 -634 -331 -725 -453
-1213 -1059 -1379 -1714 -30 -116 -62 -323 -62 -395 0 -31 -16 -51 -129 -165
-363 -367 -587 -759 -652 -1142 -22 -128 -22 -327 0 -445 l17 -92 -88 -92
c-219 -230 -380 -534 -446 -842 -28 -132 -26 -385 5 -499 43 -157 115 -285
225 -401 l62 -65 -12 -66 c-20 -106 -26 -361 -12 -474 38 -297 154 -545 352
-751 233 -241 550 -388 935 -432 58 -7 107 -14 108 -15 2 -2 -17 -16 -41 -32
-62 -41 -223 -198 -279 -273 -61 -82 -123 -205 -151 -301 -28 -100 -38 -277
-20 -384 72 -453 448 -950 1065 -1410 867 -646 2053 -1075 2925 -1059 l131 2
-1 -267 c-4 -685 -145 -1390 -377 -1876 -56 -117 -64 -139 -48 -139 19 0 268
168 426 287 443 334 814 687 1105 1048 354 440 648 1094 749 1663 26 142 33
423 13 491 -8 26 -8 39 -1 39 52 0 253 39 334 65 191 61 333 144 471 276 150
144 254 326 312 550 14 54 26 107 26 118 0 11 1 20 4 20 2 0 58 -36 123 -81
486 -328 1092 -399 1550 -180 l90 43 69 -37 c164 -87 367 -132 642 -141 282
-9 514 22 757 102 242 79 423 185 577 336 109 106 176 206 272 404 224 458
245 830 71 1205 -23 51 -41 94 -38 97 3 3 21 1 41 -5 20 -5 77 -15 127 -21
158 -19 337 12 553 96 l109 43 115 -55 c287 -136 663 -238 1011 -273 160 -17
531 -8 668 15 481 82 879 289 1228 637 337 336 529 732 562 1159 5 74 13 98
63 200 166 336 203 797 109 1357 -90 539 -309 1065 -587 1404 -135 165 -348
337 -488 394 -46 18 -60 30 -64 51 -36 170 -139 324 -367 553 -527 531 -1249
937 -1735 977 l-83 7 -29 52 c-53 95 -184 260 -302 382 -202 208 -384 343
-620 456 -211 102 -415 158 -638 174 l-100 8 -99 94 c-481 451 -1188 734
-1990 796 -187 14 -499 7 -676 -15 l-109 -14 -62 30 c-159 75 -365 137 -566
172 -119 20 -440 28 -566 14z"/>
</g>
</svg>
