<?xml version="1.0" standalone="no"?>
<!DOCTYPE svg PUBLIC "-//W3C//DTD SVG 20010904//EN"
 "http://www.w3.org/TR/2001/REC-SVG-20010904/DTD/svg10.dtd">
<svg version="1.0" xmlns="http://www.w3.org/2000/svg"
 width="1667.140592pt" height="1665.500000pt" viewBox="0 0 1667.140592 1665.500000"
 preserveAspectRatio="xMidYMid meet">
<metadata>
Created by Potrace Professional 1.1m
</metadata>
<g transform="translate(-0.818153,1666.000000) rotate(-360.00) scale(0.095238,-0.095238)"
fill="#000000" stroke="none">
<path d="M8058 15761 c-386 -953 -706 -1733 -710 -1733 -5 0 -673 518 -1485
1151 -812 632 -1477 1149 -1479 1147 -1 -2 114 -840 257 -1862 143 -1022 259
-1859 259 -1860 -1 -1 -838 116 -1860 259 -1022 143 -1860 258 -1862 257 -2
-2 516 -669 1151 -1482 635 -814 1151 -1482 1148 -1486 -4 -4 -787 -322 -1741
-709 -954 -386 -1731 -705 -1727 -708 4 -4 772 -317 1708 -695 935 -379 1716
-695 1735 -703 l34 -14 -1154 -1480 c-635 -814 -1149 -1482 -1142 -1483 7 -2
844 113 1860 255 1015 141 1847 256 1848 255 2 -2 -114 -840 -257 -1862 -143
-1022 -259 -1859 -258 -1861 1 -1 668 518 1482 1153 814 635 1482 1154 1485
1154 3 0 319 -776 704 -1724 477 -1181 703 -1725 713 -1725 11 0 236 545 714
1725 384 948 702 1723 706 1722 4 -2 670 -519 1479 -1150 810 -632 1475 -1145
1478 -1142 3 3 -110 839 -252 1856 -142 1018 -257 1852 -256 1854 2 1 834
-114 1849 -255 1016 -142 1852 -257 1859 -255 7 1 -507 669 -1142 1483 -976
1252 -1151 1482 -1135 1488 10 5 788 320 1729 701 940 381 1713 695 1716 698
3 4 1 11 -4 16 -5 5 -782 322 -1726 704 -945 382 -1720 698 -1724 702 -4 4
513 672 1147 1486 635 814 1153 1481 1152 1482 -2 1 -840 -114 -1862 -257
-1022 -143 -1859 -259 -1860 -259 -1 1 115 838 258 1860 143 1022 259 1860
257 1862 -1 2 -667 -514 -1479 -1147 -812 -633 -1480 -1151 -1485 -1151 -4 0
-324 780 -710 1733 -387 952 -705 1732 -709 1732 -3 0 -322 -780 -709 -1732z
m951 -2699 c1109 -67 2111 -526 2877 -1320 574 -595 963 -1336 1128 -2150 63
-309 74 -440 74 -856 0 -409 -6 -486 -63 -795 -218 -1185 -941 -2241 -1974
-2883 -532 -331 -1094 -530 -1748 -619 -152 -20 -218 -23 -535 -23 -406 0
-557 14 -888 83 -1283 267 -2372 1101 -2973 2274 -432 843 -572 1818 -397
2765 248 1345 1139 2506 2383 3105 658 317 1392 462 2116 419z"/>
<path d="M8584 11460 c-282 -28 -451 -62 -675 -136 -401 -132 -759 -352 -1058
-651 -229 -228 -389 -448 -525 -724 -144 -292 -225 -564 -269 -898 -22 -164
-16 -524 11 -702 91 -597 352 -1117 772 -1537 403 -404 915 -667 1487 -765
185 -32 580 -40 766 -15 405 53 758 175 1097 381 224 135 498 373 679 590 323
386 532 871 604 1397 23 177 23 506 0 682 -167 1226 -1096 2171 -2312 2354
-130 19 -478 34 -577 24z"/>
</g>
</svg>
