<?xml version="1.0" standalone="no"?>
<!DOCTYPE svg PUBLIC "-//W3C//DTD SVG 20010904//EN"
 "http://www.w3.org/TR/2001/REC-SVG-20010904/DTD/svg10.dtd">
<svg version="1.0" xmlns="http://www.w3.org/2000/svg"
 width="841.351485pt" height="1666.028405pt" viewBox="0 0 841.351485 1666.028405"
 preserveAspectRatio="xMidYMid meet">
<metadata>
Created by Potrace Professional 1.1m
</metadata>
<g transform="translate(-0.440906,1666.028405) rotate(-360.00) scale(0.095238,-0.095238)"
fill="#000000" stroke="none">
<path d="M4395 17484 c-3 -5 -278 -1782 -611 -3948 -486 -3170 -602 -3942
-592 -3955 11 -13 69 -15 379 -15 338 0 367 1 376 18 5 10 108 660 228 1445
226 1474 224 1461 266 1435 9 -6 84 -468 233 -1440 121 -788 225 -1438 231
-1445 17 -20 736 -19 753 1 9 11 -132 954 -592 3945 -332 2162 -606 3939 -609
3949 -7 20 -52 27 -62 10z"/>
<path d="M1225 16324 c-13 -9 -148 -866 -621 -3949 -333 -2166 -602 -3944
-599 -3951 4 -11 84 -13 382 -13 320 0 378 2 383 15 3 8 104 654 223 1436 140
915 223 1426 232 1436 42 46 40 61 267 -1420 119 -778 220 -1426 224 -1441 l6
-26 379 0 c304 0 379 2 383 13 4 10 -1078 7094 -1199 7854 -8 45 -34 66 -60
46z"/>
<path d="M7581 16323 c-15 -19 -1223 -7873 -1214 -7897 5 -13 54 -15 378 -15
285 -1 374 3 382 13 5 7 108 653 227 1436 140 913 223 1427 232 1437 20 20 44
8 52 -27 3 -16 103 -663 221 -1436 119 -774 220 -1411 224 -1416 5 -4 176 -7
381 -5 l372 3 3 37 c1 20 -267 1791 -596 3935 -329 2145 -599 3903 -599 3908
0 11 -30 42 -41 42 -5 0 -15 -7 -22 -15z"/>
<path d="M4215 9273 c-92 -31 -151 -92 -178 -184 -14 -46 -15 -628 -15 -4571
l0 -4518 399 0 399 0 0 4532 c0 3554 -3 4542 -13 4576 -20 66 -105 147 -176
168 -83 24 -343 23 -416 -3z"/>
<path d="M1023 8110 c-63 -22 -115 -71 -148 -138 l-30 -60 0 -3780 0 -3780
399 0 399 0 0 3780 0 3780 -29 60 c-34 69 -86 116 -153 139 -64 22 -376 21
-438 -1z"/>
<path d="M7389 8112 c-49 -18 -104 -59 -134 -101 -55 -78 -52 157 -52 -3897
l0 -3767 399 0 399 0 -3 3798 c-2 3609 -3 3800 -21 3832 -26 47 -81 100 -129
124 -36 18 -68 21 -230 23 -139 2 -200 -1 -229 -12z"/>
</g>
</svg>
