<?xml version="1.0" standalone="no"?>
<!DOCTYPE svg PUBLIC "-//W3C//DTD SVG 20010904//EN"
 "http://www.w3.org/TR/2001/REC-SVG-20010904/DTD/svg10.dtd">
<svg version="1.0" xmlns="http://www.w3.org/2000/svg"
 width="1665.915790pt" height="1666.699469pt" viewBox="0 0 1665.915790 1666.699469"
 preserveAspectRatio="xMidYMid meet">
<metadata>
Created by Potrace Professional 1.1m
</metadata>
<g transform="translate(-0.107947,1666.808605) rotate(-360.00) scale(0.095238,-0.095238)"
fill="#000000" stroke="none">
<path d="M8316 17496 c-755 -41 -1425 -157 -2118 -366 -1224 -370 -2344 -1001
-3320 -1872 -170 -152 -579 -566 -731 -740 -1195 -1370 -1923 -3013 -2127
-4802 -20 -174 -21 -239 -17 -1037 3 -948 0 -897 87 -1413 348 -2063 1438
-3939 3076 -5297 595 -493 1313 -937 2021 -1250 776 -343 1551 -560 2452 -685
199 -27 200 -27 1034 -31 791 -4 844 -3 1029 18 2423 273 4596 1520 6064 3480
984 1315 1571 2861 1711 4511 19 217 22 1176 5 1392 -165 2121 -1082 4090
-2600 5580 -1539 1511 -3513 2385 -5667 2509 -167 9 -748 12 -899 3z m877
-917 c1429 -90 2727 -526 3906 -1312 621 -415 1211 -948 1696 -1533 984 -1189
1604 -2668 1758 -4195 51 -512 51 -1094 0 -1606 -149 -1475 -731 -2903 -1658
-4069 -372 -469 -862 -955 -1325 -1316 -1806 -1409 -4107 -1959 -6356 -1518
-3250 638 -5784 3301 -6252 6572 -65 452 -85 783 -77 1276 10 581 60 1013 181
1564 381 1733 1370 3313 2774 4434 1271 1014 2792 1600 4418 1702 201 13 742
14 935 1z"/>
<path d="M8342 15754 c-1578 -100 -3006 -680 -4205 -1709 -142 -122 -588 -568
-710 -710 -975 -1137 -1543 -2466 -1690 -3958 -23 -236 -32 -804 -16 -1051 53
-831 231 -1586 549 -2339 96 -226 302 -631 433 -847 445 -738 993 -1364 1668
-1903 991 -793 2209 -1309 3467 -1468 353 -44 487 -52 898 -52 581 0 994 44
1533 163 1903 421 3587 1663 4562 3363 504 880 799 1808 904 2842 22 221 32
845 16 1082 -83 1254 -475 2420 -1159 3449 -1044 1569 -2673 2659 -4512 3017
-202 40 -476 79 -703 102 -165 16 -870 29 -1035 19z m998 -933 c474 -50 886
-139 1323 -284 1917 -636 3408 -2196 3958 -4142 156 -550 226 -1065 226 -1659
0 -279 -10 -464 -38 -703 -142 -1240 -661 -2397 -1499 -3348 -145 -164 -474
-485 -636 -620 -640 -535 -1357 -927 -2148 -1172 -158 -49 -478 -132 -508
-131 -9 0 28 20 83 44 155 67 442 216 599 310 1201 717 2100 1838 2529 3153
282 867 352 1778 205 2685 -368 2286 -2108 4141 -4372 4659 -198 46 -486 94
-704 117 -218 24 -862 27 -1081 6 -1121 -110 -2124 -507 -2998 -1184 -250
-194 -554 -480 -808 -760 l-71 -79 34 63 c51 93 202 331 286 451 1039 1480
2645 2421 4423 2593 252 25 255 25 661 21 253 -2 430 -8 536 -20z m-1024
-2005 c970 -118 1810 -478 2555 -1096 216 -179 535 -512 721 -753 342 -441
637 -1013 791 -1533 58 -194 134 -511 133 -555 0 -6 -33 50 -72 125 -306 585
-756 1101 -1295 1487 -982 702 -2237 941 -3416 649 -899 -223 -1689 -733
-2279 -1471 -114 -142 -305 -432 -397 -602 -240 -442 -399 -934 -470 -1449
-28 -205 -38 -666 -20 -880 108 -1266 774 -2400 1828 -3114 167 -114 251 -164
425 -256 63 -33 103 -58 89 -56 -299 62 -469 106 -669 175 -1187 409 -2160
1249 -2730 2357 -300 584 -466 1169 -518 1824 -16 204 -7 732 15 916 55 440
150 817 303 1207 444 1128 1300 2049 2397 2579 544 262 1121 415 1753 465 133
10 721 -3 856 -19z m609 -2474 c694 -43 1320 -285 1864 -718 138 -110 388
-361 498 -499 395 -499 626 -1057 699 -1686 18 -158 21 -518 5 -679 -90 -908
-557 -1739 -1286 -2287 -162 -121 -241 -172 -410 -266 -346 -190 -728 -314
-1144 -370 -29 -4 -50 -5 -47 -2 2 3 61 44 131 90 168 113 271 197 408 334
410 410 659 910 748 1502 22 144 25 523 5 665 -83 605 -338 1126 -756 1542
-388 388 -873 638 -1418 733 -190 33 -491 44 -678 25 -525 -52 -1003 -248
-1417 -581 -197 -159 -443 -440 -579 -662 -34 -55 -63 -99 -65 -97 -6 6 42
308 66 416 165 728 596 1404 1186 1860 533 412 1187 654 1849 684 40 1 95 4
121 5 25 1 125 -3 220 -9z m-806 -2550 c664 -133 1197 -654 1342 -1313 81
-367 36 -759 -128 -1103 -232 -489 -684 -839 -1219 -947 -159 -32 -473 -34
-633 -5 -455 85 -863 354 -1121 739 -478 715 -342 1697 313 2248 273 229 556
352 934 405 18 3 114 3 216 2 136 -3 212 -9 296 -26z"/>
</g>
</svg>
