<?xml version="1.0" standalone="no"?>
<!DOCTYPE svg PUBLIC "-//W3C//DTD SVG 20010904//EN"
 "http://www.w3.org/TR/2001/REC-SVG-20010904/DTD/svg10.dtd">
<svg version="1.0" xmlns="http://www.w3.org/2000/svg"
 width="1674.500000pt" height="1631.696183pt" viewBox="0 0 1674.500000 1631.696183"
 preserveAspectRatio="xMidYMid meet">
<metadata>
Created by Potrace Professional 1.1m
</metadata>
<g transform="translate(-0.000000,1631.824753) rotate(-360.00) scale(0.095238,-0.095238)"
fill="#000000" stroke="none">
<path d="M8489 17125 c-1639 -101 -3199 -658 -4515 -1611 -209 -151 -645 -501
-645 -516 0 -2 74 33 165 79 1343 671 2854 910 4352 688 2014 -299 3823 -1445
4971 -3149 1095 -1626 1484 -3627 1084 -5566 -447 -2168 -1886 -4034 -3883
-5033 -824 -413 -1675 -654 -2626 -743 -276 -26 -996 -26 -1270 0 -950 90
-1788 327 -2631 744 l-168 83 57 -50 c313 -277 811 -640 1198 -871 986 -590
2015 -957 3197 -1140 l221 -34 945 -3 c823 -3 963 -2 1087 13 2341 283 4451
1509 5870 3412 898 1204 1465 2641 1636 4143 42 366 48 500 48 976 0 476 -6
610 -48 977 -267 2344 -1486 4470 -3380 5894 -1358 1021 -2950 1603 -4672
1707 -200 12 -791 12 -993 0z"/>
<path d="M5119 13912 c-1672 -67 -3220 -920 -4184 -2304 -489 -701 -798 -1504
-914 -2368 -19 -143 -21 -217 -21 -693 0 -476 2 -550 21 -693 160 -1194 690
-2267 1538 -3112 1437 -1432 3551 -1930 5482 -1292 436 144 917 380 1296 635
485 326 954 772 1313 1249 535 711 894 1585 1017 2478 37 269 47 429 47 735 0
608 -83 1127 -272 1696 -264 797 -698 1498 -1301 2100 -443 442 -902 770
-1449 1035 -810 391 -1671 570 -2573 534z"/>
</g>
</svg>
