<?xml version="1.0" standalone="no"?>
<!DOCTYPE svg PUBLIC "-//W3C//DTD SVG 20010904//EN"
 "http://www.w3.org/TR/2001/REC-SVG-20010904/DTD/svg10.dtd">
<svg version="1.0" xmlns="http://www.w3.org/2000/svg"
 width="859.984158pt" height="1648.801662pt" viewBox="0 0 859.984158 1648.801662"
 preserveAspectRatio="xMidYMid meet">
<metadata>
Created by Potrace Professional 1.1m
</metadata>
<g transform="translate(-3.013940,1654.551662) rotate(-360.00) scale(0.095238,-0.095238)"
fill="#000000" stroke="none">
<path d="M4022 17367 c-906 -70 -1644 -348 -2232 -842 -109 -92 -340 -327
-426 -434 -228 -282 -416 -610 -559 -971 -37 -95 -111 -307 -164 -471 -53
-163 -118 -348 -144 -409 -94 -221 -92 -212 -92 -380 0 -181 13 -256 99 -601
74 -292 99 -428 89 -478 -9 -52 -81 -124 -246 -247 -251 -187 -316 -254 -315
-327 0 -50 68 -165 287 -484 230 -333 311 -463 375 -597 57 -119 61 -183 31
-484 -36 -353 -44 -538 -32 -709 10 -139 44 -329 73 -402 l11 -30 134 125
c199 187 338 309 612 536 501 417 545 455 581 497 l36 42 -61 84 c-35 46 -78
115 -97 154 -33 67 -34 76 -33 186 1 105 4 125 40 224 125 349 325 722 418
779 47 28 214 28 382 -1 371 -63 905 -246 1033 -352 32 -28 33 -32 27 -81 -18
-138 -110 -280 -310 -481 -165 -165 -243 -233 -699 -608 -526 -434 -1327
-1123 -1748 -1505 -235 -213 -570 -544 -661 -653 -141 -169 -156 -202 -124
-288 32 -86 133 -309 433 -951 820 -1751 1190 -2619 1333 -3124 54 -194 62
-249 55 -376 -13 -236 -172 -890 -373 -1537 l-41 -134 136 -181 c281 -372 545
-658 653 -711 60 -29 87 -24 143 27 55 49 70 102 54 188 -20 107 -90 309 -228
651 -72 180 -141 367 -153 417 -20 81 -21 96 -9 140 28 98 205 383 450 724 93
130 120 175 119 198 -3 34 -128 806 -158 975 -25 137 -46 183 -167 377 -118
188 -145 243 -218 435 -161 424 -1065 2907 -1066 2924 0 6 240 169 532 364
439 293 532 351 540 337 5 -9 48 -64 95 -123 121 -152 275 -302 383 -375 57
-37 100 -74 109 -93 12 -23 16 -63 16 -142 -2 -195 -58 -424 -241 -986 -61
-186 -111 -355 -111 -374 0 -63 58 -197 457 -1065 593 -1291 764 -1695 764
-1812 1 -33 -25 -148 -69 -309 -224 -825 -288 -1065 -358 -1344 -89 -355 -139
-589 -149 -693 -6 -66 -4 -78 24 -139 39 -82 120 -183 287 -360 151 -160 224
-246 248 -292 9 -18 30 -90 46 -159 74 -318 167 -535 244 -567 45 -19 82 -5
133 53 55 62 75 125 82 246 13 247 -88 541 -301 869 -153 238 -186 327 -176
484 7 113 33 196 204 642 284 740 392 1129 392 1417 -1 229 -95 502 -566 1635
-228 548 -326 799 -353 906 -15 58 -16 82 -6 173 36 320 206 1184 289 1470 30
103 105 252 199 399 86 134 222 315 259 346 68 57 166 19 257 -98 l49 -63 39
49 c43 54 85 94 126 122 33 21 104 22 134 1 32 -23 186 -229 276 -371 106
-168 173 -312 210 -453 109 -422 273 -1309 273 -1480 0 -115 -53 -259 -378
-1040 -385 -923 -519 -1293 -545 -1501 -19 -150 15 -393 93 -670 57 -200 135
-424 300 -857 77 -203 153 -412 167 -463 70 -241 43 -358 -151 -656 -205 -315
-302 -596 -293 -852 4 -112 8 -128 39 -192 38 -76 94 -125 144 -125 87 0 179
191 267 553 49 202 55 211 263 432 180 191 278 311 320 391 26 51 31 71 29
129 -3 135 -118 623 -329 1401 -203 749 -251 934 -251 965 0 102 200 576 729
1729 457 993 505 1105 494 1168 -3 24 -48 171 -100 327 -193 590 -252 830
-252 1030 1 121 20 157 111 210 89 51 314 271 419 409 40 52 76 99 80 103 5 7
1022 -659 1063 -696 14 -13 -1061 -2960 -1143 -3134 -20 -41 -85 -153 -145
-250 -61 -97 -118 -198 -127 -226 -16 -45 -81 -422 -163 -935 l-33 -202 87
-118 c147 -198 383 -559 439 -670 44 -88 53 -115 53 -163 0 -73 -44 -204 -159
-485 -114 -276 -173 -435 -210 -567 -34 -122 -38 -174 -16 -226 17 -42 97
-112 127 -111 66 0 227 138 407 348 114 134 309 381 392 497 l49 69 -74 249
c-187 623 -301 1092 -338 1388 -11 84 -10 114 4 195 77 443 473 1395 1413
3401 281 598 396 854 412 912 11 44 11 53 -9 94 -43 87 -126 184 -365 423
-316 315 -686 648 -1450 1302 -370 317 -399 341 -813 673 -525 420 -686 567
-787 716 -114 168 -158 329 -103 380 92 88 550 253 933 337 131 29 172 34 310
34 146 1 162 -1 189 -21 90 -67 308 -485 407 -782 78 -233 60 -345 -91 -555
l-64 -88 83 -80 c46 -44 201 -176 346 -295 363 -297 651 -548 889 -775 l49
-46 21 69 c48 156 59 249 59 532 0 208 -6 319 -24 498 -15 137 -23 272 -21
336 3 99 6 112 46 195 60 125 157 278 368 584 255 370 287 426 287 494 0 52
-3 58 -59 119 -33 36 -114 105 -181 155 -184 138 -261 202 -291 246 -26 38
-28 46 -22 122 4 44 39 213 79 375 143 575 148 717 39 961 -28 60 -103 270
-168 467 -200 603 -298 822 -524 1165 -539 818 -1380 1335 -2442 1501 -271 43
-379 49 -867 53 -265 2 -537 0 -603 -5z m649 -6511 c164 -82 397 -393 516
-688 101 -254 98 -350 -16 -460 -130 -127 -424 -190 -757 -164 -281 23 -457
97 -541 230 -26 41 -30 58 -30 120 0 200 217 622 430 838 157 158 263 191 398
124z"/>
</g>
</svg>
