<?xml version="1.0" standalone="no"?>
<!DOCTYPE svg PUBLIC "-//W3C//DTD SVG 20010904//EN"
 "http://www.w3.org/TR/2001/REC-SVG-20010904/DTD/svg10.dtd">
<svg version="1.0" xmlns="http://www.w3.org/2000/svg"
 width="1319.822990pt" height="1661.728200pt" viewBox="0 0 1319.822990 1661.728200"
 preserveAspectRatio="xMidYMid meet">
<metadata>
Created by Potrace Professional 1.1m
</metadata>
<g transform="translate(-1.177010,1663.869540) rotate(-360.00) scale(0.095238,-0.095238)"
fill="#000000" stroke="none">
<path d="M11188 17355 c-7859 -8078 -8306 -8538 -8309 -8569 -2 -19 4 -39 15
-51 17 -20 70 -20 2414 -20 2308 0 2396 -1 2413 -19 10 -11 18 -30 18 -43 0
-13 -945 -1942 -2100 -4287 -1155 -2345 -2100 -4274 -2101 -4287 0 -34 34 -60
73 -56 27 3 711 726 4936 5220 2697 2869 4913 5229 4925 5244 26 34 26 48 -3
81 l-24 26 -2588 174 c-1424 95 -2597 176 -2607 179 -11 4 -25 18 -31 33 -11
24 125 300 1588 3227 l1601 3201 -22 29 c-13 18 -34 31 -52 33 -26 3 -44 -11
-146 -115z"/>
<path d="M1892 10472 c-18 -15 -212 -659 -948 -3138 -508 -1715 -927 -3134
-930 -3153 -8 -42 19 -76 59 -75 14 0 426 68 914 152 488 84 901 154 917 154
16 1 38 -8 48 -19 14 -15 120 -500 410 -1873 228 -1081 396 -1859 405 -1868
19 -20 75 -19 95 1 14 13 46 471 188 2629 191 2887 181 2661 108 2661 -19 0
-400 -57 -847 -127 -446 -70 -823 -124 -837 -120 -13 3 -29 14 -35 25 -7 13
74 709 273 2349 156 1282 283 2340 283 2352 0 52 -63 83 -103 50z"/>
<path d="M11256 5415 c-1987 -944 -2527 -1205 -2537 -1225 -7 -14 -9 -34 -5
-47 5 -12 244 -202 532 -423 288 -220 542 -415 564 -433 44 -37 52 -80 21
-108 -10 -8 -1051 -685 -2313 -1504 -1262 -819 -2305 -1499 -2318 -1510 -38
-35 -29 -96 16 -113 22 -9 547 217 3590 1541 2724 1185 3569 1557 3582 1576
12 18 13 32 6 51 -7 19 -183 141 -650 449 -680 449 -683 452 -640 501 12 12
621 530 1354 1151 734 621 1351 1146 1373 1166 26 25 40 47 40 66 0 33 -30 62
-64 62 -14 0 -1162 -540 -2551 -1200z"/>
</g>
</svg>
