<?xml version="1.0" standalone="no"?>
<!DOCTYPE svg PUBLIC "-//W3C//DTD SVG 20010904//EN"
 "http://www.w3.org/TR/2001/REC-SVG-20010904/DTD/svg10.dtd">
<svg version="1.0" xmlns="http://www.w3.org/2000/svg"
 width="1632.386701pt" height="1666.587100pt" viewBox="0 0 1632.386701 1666.587100"
 preserveAspectRatio="xMidYMid meet">
<metadata>
Created by Potrace Professional 1.1m
</metadata>
<g transform="translate(0.205529,1666.978906) rotate(-360.00) scale(0.095238,-0.095238)"
fill="#000000" stroke="none">
<path d="M8501 17471 c-93 -48 -175 -107 -294 -209 -213 -184 -395 -390 -853
-963 -295 -369 -365 -454 -515 -622 l-42 -46 -283 151 c-357 190 -758 393
-975 492 -493 226 -917 367 -1158 386 l-87 7 -97 -99 c-343 -349 -760 -969
-1077 -1603 -41 -82 -78 -149 -80 -149 -3 0 -57 25 -119 56 -633 318 -1246
573 -1577 658 -203 51 -374 65 -467 38 -36 -11 -46 -20 -71 -70 -34 -71 -87
-259 -113 -404 -45 -246 -57 -407 -57 -772 0 -359 7 -480 48 -770 l21 -155
-42 -81 c-144 -279 -205 -736 -205 -1535 0 -886 86 -1973 257 -3242 23 -175
41 -327 39 -338 -2 -11 -155 -187 -340 -391 -185 -204 -354 -391 -376 -415
l-40 -45 487 -878 c388 -700 496 -888 537 -929 179 -183 726 -515 1635 -992
300 -157 1291 -653 1669 -834 251 -121 297 -140 354 -144 85 -7 148 16 215 79
52 49 93 132 92 191 0 17 -28 184 -62 370 -82 448 -87 488 -87 691 1 253 42
491 124 704 19 51 229 522 466 1048 237 525 435 975 440 1000 20 92 24 175 12
260 -23 170 -85 303 -187 406 -108 109 -48 94 -1396 346 -665 124 -1215 226
-1221 226 -7 -1 -10 228 -8 727 l3 727 35 71 c41 84 121 168 199 210 71 38
191 63 260 55 29 -4 826 -203 1771 -442 945 -239 1731 -435 1745 -435 55 0
143 -44 206 -102 71 -65 137 -184 158 -282 27 -134 17 -198 -261 -1642 -146
-754 -269 -1392 -275 -1418 -95 -410 97 -846 417 -945 67 -20 96 -21 1242 -21
1146 0 1175 1 1242 21 320 99 512 535 417 945 -6 26 -131 675 -278 1442 -288
1500 -288 1500 -252 1639 40 154 154 297 273 341 32 12 70 22 85 22 14 0 800
196 1745 435 945 239 1742 438 1771 441 69 9 189 -16 260 -54 125 -67 219
-203 239 -344 16 -116 14 -1380 -3 -1386 -7 -3 -558 -107 -1225 -231 -1335
-249 -1287 -238 -1390 -336 -164 -158 -237 -424 -183 -672 6 -29 209 -491 451
-1028 259 -572 457 -1025 481 -1097 51 -155 80 -306 96 -492 17 -201 2 -357
-70 -749 -87 -470 -84 -446 -64 -518 21 -70 81 -142 148 -178 33 -18 60 -22
126 -22 l84 0 289 140 c458 221 1448 718 1769 888 957 505 1476 833 1585 998
19 29 246 434 504 900 l470 849 -40 44 c-22 24 -191 211 -376 416 -187 206
-338 381 -340 394 -2 13 11 127 29 254 73 525 150 1220 194 1758 136 1631 91
2668 -133 3100 l-42 81 17 113 c70 460 76 1034 16 1462 -25 175 -80 399 -122
501 -36 87 -58 100 -179 106 -236 13 -632 -107 -1227 -369 -191 -84 -537 -247
-720 -339 -62 -31 -116 -56 -119 -56 -2 0 -39 67 -80 149 -204 409 -485 868
-736 1202 -114 152 -299 368 -386 448 l-55 51 -85 -6 c-240 -19 -665 -161
-1157 -386 -213 -97 -636 -311 -986 -498 l-272 -145 -42 46 c-151 169 -220
253 -498 601 -466 584 -661 805 -870 985 -122 104 -202 160 -295 208 -36 18
-67 32 -68 32 -2 0 -31 -14 -65 -32z"/>
<path d="M6893 3647 c-351 -43 -687 -177 -961 -383 -52 -39 -269 -221 -483
-404 l-388 -332 0 -948 0 -948 60 -23 c127 -48 437 -148 636 -204 686 -195
1377 -320 2097 -381 321 -27 1107 -27 1428 0 720 61 1411 186 2097 381 199 56
509 156 636 204 l60 23 0 948 0 948 -388 332 c-214 183 -431 365 -483 404
-228 171 -503 295 -806 361 -103 23 -105 23 -1788 24 -927 1 -1699 0 -1717 -2z"/>
</g>
</svg>
