<?xml version="1.0" standalone="no"?>
<!DOCTYPE svg PUBLIC "-//W3C//DTD SVG 20010904//EN"
 "http://www.w3.org/TR/2001/REC-SVG-20010904/DTD/svg10.dtd">
<svg version="1.0" xmlns="http://www.w3.org/2000/svg"
 width="1663.874151pt" height="869.658758pt" viewBox="0 0 1663.874151 869.658758"
 preserveAspectRatio="xMidYMid meet">
<metadata>
Created by Potrace Professional 1.1m
</metadata>
<g transform="translate(-5.078310,869.621372) rotate(-360.00) scale(0.095238,-0.095238)"
fill="#000000" stroke="none">
<path d="M14854 9124 c-40 -6 -106 -17 -147 -26 -58 -12 -1905 -538 -1915
-545 -3 -2 471 -1689 475 -1695 2 -1 406 113 898 255 493 142 904 258 915 258
30 0 80 -29 93 -53 6 -11 141 -471 300 -1021 209 -726 287 -1009 283 -1032
-14 -73 3 -67 -960 -344 -493 -142 -899 -260 -902 -263 -4 -5 465 -1685 473
-1693 3 -3 1787 511 1887 544 245 80 492 231 690 421 487 468 689 1169 523
1814 -54 208 -611 2118 -640 2194 -150 387 -450 736 -812 944 -187 107 -414
189 -622 227 -117 21 -433 29 -539 15z"/>
<path d="M6254 6688 c-3779 -1077 -5839 -1668 -5880 -1689 -137 -67 -249 -200
-297 -354 -24 -77 -26 -100 -22 -195 5 -104 23 -173 435 -1644 237 -844 432
-1537 435 -1539 2 -2 564 -288 1248 -636 1245 -632 1326 -669 1309 -613 -44
146 -531 1809 -531 1814 0 4 579 -285 1286 -641 708 -356 1289 -645 1291 -643
2 2 -116 429 -262 948 -146 520 -265 946 -265 947 1 0 578 -297 1282 -660 703
-363 1281 -659 1282 -658 2 2 -119 441 -268 974 -150 534 -270 973 -268 975 2
2 581 -306 1288 -685 706 -378 1285 -687 1286 -685 1 1 -115 425 -259 942
-144 517 -260 943 -259 947 2 5 478 -238 1058 -538 580 -301 1155 -599 1278
-662 l222 -115 -11 40 c-40 148 -504 1827 -507 1837 -6 16 -92 60 1348 -679
655 -335 1193 -608 1196 -605 3 3 -57 222 -132 486 -75 265 -426 1495 -780
2736 -598 2096 -644 2254 -665 2254 -12 -1 -2639 -747 -5838 -1659z"/>
</g>
</svg>
