<?xml version="1.0" standalone="no"?>
<!DOCTYPE svg PUBLIC "-//W3C//DTD SVG 20010904//EN"
 "http://www.w3.org/TR/2001/REC-SVG-20010904/DTD/svg10.dtd">
<svg version="1.0" xmlns="http://www.w3.org/2000/svg"
 width="1667.331523pt" height="1449.020351pt" viewBox="0 0 1667.331523 1449.020351"
 preserveAspectRatio="xMidYMid meet">
<metadata>
Created by Potrace Professional 1.1m
</metadata>
<g transform="translate(-3.108619,1450.993883) rotate(-360.00) scale(0.095238,-0.095238)"
fill="#000000" stroke="none">
<path d="M142 15219 c-75 -39 -117 -115 -108 -196 4 -36 421 -766 2024 -3541
1110 -1923 2030 -3514 2045 -3536 64 -96 223 -108 298 -22 15 17 4022 6951
4066 7036 21 41 22 130 2 168 -20 38 -68 83 -104 96 -21 8 -1252 11 -4111 11
-3677 0 -4084 -1 -4112 -16z"/>
<path d="M9185 15214 c-78 -41 -122 -154 -89 -231 28 -67 4052 -7029 4080
-7059 35 -39 84 -60 138 -60 54 0 103 21 137 60 15 16 941 1613 2058 3547
1952 3381 2030 3520 2031 3570 0 69 -29 126 -82 161 l-42 28 -4096 2 c-4066 3
-4096 2 -4135 -18z"/>
<path d="M8720 13315 c-11 -5 -31 -20 -43 -34 -13 -14 -632 -1078 -1375 -2366
-1268 -2195 -1353 -2345 -1353 -2391 -1 -43 4 -55 34 -84 l34 -35 2751 0 2750
0 34 35 c30 29 35 41 34 84 0 46 -81 190 -1352 2391 -744 1288 -1366 2355
-1382 2371 -31 32 -94 46 -132 29z"/>
<path d="M4644 7370 c-76 -38 -120 -128 -101 -206 12 -46 4046 -7039 4087
-7084 72 -79 203 -79 275 0 38 41 4073 7032 4086 7078 22 81 -22 174 -100 212
l-46 22 -4078 0 -4079 0 -44 -22z"/>
</g>
</svg>
