<?xml version="1.0" standalone="no"?>
<!DOCTYPE svg PUBLIC "-//W3C//DTD SVG 20010904//EN"
 "http://www.w3.org/TR/2001/REC-SVG-20010904/DTD/svg10.dtd">
<svg version="1.0" xmlns="http://www.w3.org/2000/svg"
 width="1656.308047pt" height="1515.978100pt" viewBox="0 0 1656.308047 1515.978100"
 preserveAspectRatio="xMidYMid meet">
<metadata>
Created by Potrace Professional 1.1m
</metadata>
<g transform="translate(-9.162041,1515.978100) rotate(-360.00) scale(0.095238,-0.095238)"
fill="#000000" stroke="none">
<path d="M4338 15897 c-60 -27 -203 -168 -300 -294 -370 -482 -679 -1182 -756
-1713 -29 -194 -18 -485 21 -606 72 -219 325 -579 619 -882 270 -278 500 -442
689 -491 84 -22 172 -10 330 43 273 91 538 265 766 500 131 136 206 240 270
374 l45 92 -1 158 c0 141 -4 171 -34 291 -164 657 -641 1545 -1139 2124 -163
189 -411 425 -446 425 -10 0 -39 -10 -64 -21z"/>
<path d="M13117 15856 c-437 -378 -948 -1113 -1253 -1802 -193 -436 -289 -783
-281 -1017 4 -111 7 -121 48 -208 62 -131 139 -238 265 -369 232 -240 497
-414 772 -506 158 -53 246 -65 330 -43 190 49 413 208 689 491 306 313 573
702 630 917 23 88 33 392 16 526 -38 314 -162 697 -345 1071 -104 212 -159
308 -281 493 -198 302 -400 507 -500 509 -10 0 -50 -28 -90 -62z"/>
<path d="M8703 14350 c-209 -86 -615 -393 -1169 -884 -234 -206 -370 -342
-596 -590 -300 -331 -510 -597 -528 -669 -5 -18 38 -105 176 -354 794 -1429
1203 -2334 1122 -2485 -18 -33 -74 -39 -189 -20 -300 50 -816 246 -1382 527
-950 472 -1878 1097 -2635 1775 -168 150 -532 512 -687 682 -272 299 -541 639
-736 935 -54 81 -101 151 -106 156 -19 22 -216 -140 -354 -292 -172 -188 -298
-377 -428 -641 -265 -538 -347 -1105 -240 -1659 27 -135 28 -139 138 -341 305
-562 908 -1647 957 -1721 l16 -26 -41 8 c-23 4 -120 33 -216 65 -679 220
-1236 573 -1558 985 -85 109 -78 117 -104 -100 -31 -253 -38 -367 -45 -718 -8
-437 9 -844 55 -1355 l17 -178 47 -84 c228 -399 672 -885 1069 -1170 401 -288
857 -479 1297 -542 66 -9 143 -20 170 -24 l49 -7 -317 -212 c-833 -555 -1365
-967 -1446 -1121 l-25 -47 30 -31 c37 -39 271 -159 452 -233 915 -369 1999
-591 2754 -562 169 6 411 29 471 44 l27 7 -39 -77 c-89 -177 -213 -352 -458
-646 -149 -179 -177 -216 -177 -238 0 -40 482 -257 960 -433 302 -110 508
-173 662 -199 l74 -13 108 -183 c304 -514 588 -955 766 -1192 137 -181 278
-320 302 -296 2 2 -12 90 -32 195 -79 422 -105 697 -89 938 10 152 21 220 60
379 l27 112 -50 130 c-131 337 -338 768 -845 1762 -179 349 -354 699 -390 777
l-65 143 -96 18 c-658 125 -1137 285 -1434 479 -116 76 -251 209 -304 299 -34
58 -37 69 -37 147 0 73 5 93 34 153 98 202 358 454 711 689 135 89 189 119
218 119 70 0 237 -157 611 -577 274 -308 506 -555 600 -636 l68 -60 23 30
c174 223 708 775 979 1011 682 595 1299 961 1729 1026 89 13 127 14 210 4 393
-45 884 -306 1493 -794 405 -324 862 -768 1176 -1143 58 -70 110 -128 117
-129 19 -5 388 376 674 696 300 335 491 526 558 555 l45 21 49 -24 c152 -74
481 -322 648 -489 234 -235 315 -428 240 -575 -82 -163 -245 -302 -507 -434
-280 -140 -632 -248 -1144 -351 l-193 -38 -90 -189 c-49 -103 -236 -474 -415
-823 -448 -877 -651 -1302 -791 -1653 l-58 -147 33 -131 c47 -194 57 -287 56
-515 0 -229 -19 -394 -81 -735 -21 -112 -40 -214 -43 -227 -21 -84 160 87 318
300 189 254 501 742 765 1194 l93 159 69 12 c155 26 391 99 725 223 402 150
885 366 899 404 10 23 -9 50 -167 240 -164 197 -295 370 -368 484 -57 89 -127
224 -119 231 2 3 65 -3 139 -14 189 -26 736 -26 970 0 507 57 978 156 1485
312 568 174 1119 417 1119 492 0 123 -575 578 -1542 1219 l-246 162 109 12
c889 99 1707 624 2329 1494 47 66 111 163 143 216 l57 95 21 231 c39 437 47
616 47 1119 1 515 -8 690 -47 959 -11 75 -21 137 -23 139 -2 2 -29 -31 -61
-72 -132 -173 -341 -367 -556 -514 -324 -223 -785 -433 -1179 -539 l-91 -24
12 22 c6 13 69 125 140 249 248 436 793 1424 896 1623 93 180 132 686 80 1034
-72 479 -296 986 -606 1370 -90 110 -280 293 -363 349 l-67 44 -107 -160
c-445 -664 -1021 -1290 -1736 -1887 -989 -826 -2319 -1598 -3337 -1937 -317
-106 -505 -136 -552 -88 -77 77 73 486 470 1280 202 403 401 779 653 1233 93
167 170 311 170 320 0 101 -615 809 -1040 1197 -600 548 -1041 889 -1246 966
-73 28 -121 27 -194 -3z"/>
<path d="M8592 6215 c-544 -83 -1171 -455 -1762 -1044 -192 -190 -292 -304
-357 -401 -38 -58 -33 -106 27 -256 66 -166 370 -770 407 -810 4 -4 63 7 131
24 359 91 712 158 934 178 176 16 181 12 117 -73 -142 -188 -491 -405 -865
-536 -55 -19 -104 -39 -109 -43 -19 -16 45 -211 146 -450 67 -160 193 -433
204 -445 5 -5 74 17 154 49 248 98 510 165 797 203 188 25 589 25 777 0 286
-38 574 -112 808 -207 71 -29 132 -52 136 -52 9 0 104 201 200 425 86 201 166
428 161 460 -2 15 -26 28 -98 54 -397 142 -737 352 -881 543 -64 84 -58 88
118 72 237 -21 788 -130 1043 -206 21 -6 94 121 266 463 132 263 205 438 212
515 5 49 2 57 -40 117 -112 159 -416 470 -650 666 -473 396 -902 632 -1329
729 -104 24 -154 30 -303 32 -98 2 -208 -1 -244 -7z"/>
<path d="M8594 1995 c-228 -19 -454 -69 -651 -142 -97 -36 -259 -114 -302
-146 -25 -19 -66 -206 -81 -367 -8 -88 -8 -156 0 -233 10 -99 44 -240 61 -258
4 -4 37 15 73 42 95 72 219 145 291 172 95 34 214 33 285 -5 74 -39 154 -130
203 -232 53 -112 67 -180 62 -303 -4 -87 -9 -109 -39 -170 -19 -38 -57 -92
-86 -120 l-51 -51 63 -55 c35 -31 87 -72 116 -91 l53 -36 213 0 213 0 54 36
c29 20 82 61 117 91 l63 55 -53 53 c-30 29 -68 83 -86 119 -28 57 -33 82 -38
169 -8 168 49 330 157 448 80 87 140 115 245 115 128 0 231 -45 428 -187 45
-32 83 -54 85 -50 18 30 50 166 60 257 16 150 -9 397 -59 570 -16 56 -311 187
-565 252 -234 59 -588 88 -831 67z"/>
</g>
</svg>
